<svg xmlns="http://www.w3.org/2000/svg" width="800" height="800" viewBox="0 0 32 32"><path style="fill:#007acc" d="M2 2h28v28H2z"/><path xmlns="http://www.w3.org/2000/svg" fill="#FFF" d="m17.826 15.983.009 1.174h-3.732v10.604h-2.64V17.157H7.732v-1.151c0-.637.013-1.17.031-1.183.014-.019 2.285-.028 5.038-.023l5.011.013.014 1.17Zm6.71-1.213a3.57 3.57 0 0 1 1.793 1.033c.264.282.655.796.687.919.009.036-1.238.874-1.993 1.343-.028.018-.137-.1-.26-.283-.369-.537-.755-.769-1.347-.81-.87-.059-1.429.396-1.425 1.156 0 .223.032.355.123.537.191.396.546.633 1.662 1.115 2.052.883 2.93 1.466 3.477 2.294.61.924.746 2.398.332 3.495-.455 1.193-1.584 2.003-3.172 2.271-.492.087-1.657.073-2.185-.023-1.151-.204-2.244-.773-2.917-1.52-.264-.29-.778-1.05-.747-1.105a2.15 2.15 0 0 1 .264-.169c.128-.073.61-.35 1.066-.614l.823-.478.173.255c.241.368.77.874 1.088 1.042.915.482 2.17.414 2.79-.141.264-.241.373-.492.373-.86 0-.332-.041-.478-.214-.728-.223-.319-.678-.588-1.97-1.147-1.48-.637-2.117-1.033-2.7-1.662a3.78 3.78 0 0 1-.787-1.433c-.109-.405-.136-1.42-.05-1.83.305-1.429 1.384-2.425 2.94-2.721.505-.096 1.68-.06 2.175.064Z"/></svg>