<svg xmlns="http://www.w3.org/2000/svg" viewBox="0 0 20 20" xml:space="preserve"><g fill="#fff"><path d="M16.5 3a.5.5 0 0 1 .5.5v4a.5.5 0 0 1-.5.5h-4a.5.5 0 0 1-.5-.5v-4a.5.5 0 0 1 .5-.5z"/><path d="M16 16.5a.5.5 0 0 0-.5.5h-3a.5.5 0 0 0-.5-.5v-.508H7v.508a.5.5 0 0 0-.5.5h-3a.5.5 0 0 0-.5-.5v-3a.5.5 0 0 0 .5-.5H4V8h-.5a.5.5 0 0 0-.5-.5v-3a.5.5 0 0 0 .5-.5h3a.5.5 0 0 0 .5.5v.492h3.5a.5.5 0 1 0 0 1H7V7.5a.5.5 0 0 0-.5.5H5v5h1.5a.5.5 0 0 0 .5.5v1.492h5V13.5a.5.5 0 0 0 .5-.5H14V9.5a.5.5 0 1 0 1 0V13h.5a.5.5 0 0 0 .5.5zm-1-.5v-2h-2v1.414a.5.5 0 0 0 0 .16V16zm-9 0v-2H4v2zm0-9V5H4v2z"/></g></svg>