<svg xmlns="http://www.w3.org/2000/svg" viewBox="0 0 20 20" xml:space="preserve"><path d="M14.159 3.019c-.496-.045-1.039.16-1.493.613l-1.75 1.75a.5.5 0 0 0 0 .708l3 3a.5.5 0 0 0 .708 0l1.75-1.75c.453-.454.658-.997.613-1.493-.045-.496-.305-.906-.613-1.215l-1-1c-.31-.308-.72-.568-1.215-.613zM9.762 6.736a.5.5 0 0 0-.346.146l-.25.25a.5.5 0 0 0 0 .708l3 3a.5.5 0 0 0 .708 0l.25-.25a.5.5 0 0 0 0-.708l-3-3a.5.5 0 0 0-.362-.146zM8.51 8.982a.5.5 0 0 0-.344.15l-4.25 4.25c-.838.839-1.068 1.758-.802 2.467.266.71.948 1.137 1.656 1.137h4.25c1 0 2-.798 2-2v-3.5a.5.5 0 1 0-1 0v3.5c0 .665-.504 1-1 1H4.77a.798.798 0 0 1-.719-.488c-.109-.29-.09-.747.573-1.408l4.25-4.25a.5.5 0 0 0-.364-.858z" fill="#fff"/></svg>