<svg width="800" height="800" viewBox="0 0 24 24" fill="none" xmlns="http://www.w3.org/2000/svg"><path fill-rule="evenodd" clip-rule="evenodd" d="M8.955.5c-1.55 0-2.803.52-3.672 1.385A4.385 4.385 0 0 0 4 5a4.385 4.385 0 0 0 1.726 3.5 4.357 4.357 0 0 0-.443.385A4.385 4.385 0 0 0 4 12a4.385 4.385 0 0 0 1.698 3.479A4.501 4.501 0 1 0 13 19v-3.258a4.5 4.5 0 0 0 5.302-7.264A4.385 4.385 0 0 0 20 5a4.387 4.387 0 0 0-1.283-3.114C17.848 1.021 16.595.5 15.045.5h-6.09ZM11 9.5H8.955c-1.087 0-1.811.354-2.26.802A2.386 2.386 0 0 0 6 12c0 .627.235 1.24.694 1.698.45.447 1.174.802 2.26.802H11v-5Zm-3.88 7.434A2.5 2.5 0 0 1 8.5 16.5H11V19a2.5 2.5 0 0 1-.434 1.38 2.483 2.483 0 0 1-4.503-.895 2.484 2.484 0 0 1 1.057-2.55ZM13 7.5h2.045c1.087 0 1.811-.354 2.26-.802A2.386 2.386 0 0 0 18 5c0-.626-.235-1.24-.694-1.698-.45-.448-1.174-.802-2.26-.802H13v5Zm-2 0H8.955c-1.087 0-1.811-.354-2.26-.802A2.386 2.386 0 0 1 6 5c0-.626.235-1.24.694-1.698.45-.448 1.174-.802 2.26-.802H11v5Zm4.5 6.985a2.485 2.485 0 1 1 0-4.97 2.485 2.485 0 0 1 0 4.97Z" fill="#0F0F0F"/></svg>