{
	"asset":{
		"generator":"Khronos glTF Blender I/O v4.4.55",
		"version":"2.0"
	},
	"scene":0,
	"scenes":[
		{
			"name":"Scene",
			"nodes":[
				0
			]
		}
	],
	"nodes":[
		{
			"mesh":0,
			"name":"\u96d5\u50cf.004",
			"rotation":[
				0.7193397879600525,
				0,
				0,
				0.6946583986282349
			]
		}
	],
	"meshes":[
		{
			"name":"\u96d5\u50cf.004",
			"primitives":[
				{
					"attributes":{
						"POSITION":0,
						"NORMAL":1
					},
					"indices":2
				}
			]
		}
	],
	"accessors":[
		{
			"bufferView":0,
			"componentType":5126,
			"count":1061422,
			"max":[
				1.0143675804138184,
				0.8730987310409546,
				1.381377100944519
			],
			"min":[
				-0.727748692035675,
				-1.244890809059143,
				-1.3625291585922241
			],
			"type":"VEC3"
		},
		{
			"bufferView":1,
			"componentType":5126,
			"count":1061422,
			"type":"VEC3"
		},
		{
			"bufferView":2,
			"componentType":5125,
			"count":6368520,
			"type":"SCALAR"
		}
	],
	"bufferViews":[
		{
			"buffer":0,
			"byteLength":12737064,
			"byteOffset":0,
			"target":34962
		},
		{
			"buffer":0,
			"byteLength":12737064,
			"byteOffset":12737064,
			"target":34962
		},
		{
			"buffer":0,
			"byteLength":25474080,
			"byteOffset":25474128,
			"target":34963
		}
	],
	"buffers":[
		{
			"byteLength":50948208,
			"uri":"bust-sculpt.bin"
		}
	]
}
