{
	"asset":{
		"generator":"Khronos glTF Blender I/O v4.4.55",
		"version":"2.0"
	},
	"scene":0,
	"scenes":[
		{
			"name":"Scene",
			"nodes":[
				0
			]
		}
	],
	"nodes":[
		{
			"mesh":0,
			"name":"\u96d5\u50cf",
			"rotation":[
				0.0015235133469104767,
				-0.05732978880405426,
				0.02652144804596901,
				0.9980018138885498
			],
			"scale":[
				0.007666036952286959,
				0.007666036952286959,
				0.007666037417948246
			],
			"translation":[
				0.11121045053005219,
				0,
				0
			]
		}
	],
	"meshes":[
		{
			"name":"\u96d5\u50cf",
			"primitives":[
				{
					"attributes":{
						"POSITION":0,
						"NORMAL":1
					},
					"indices":2
				}
			]
		}
	],
	"accessors":[
		{
			"bufferView":0,
			"componentType":5126,
			"count":1061422,
			"max":[
				114.88253021240234,
				173.82542419433594,
				117.31536865234375
			],
			"min":[
				-101.42086029052734,
				-182.44790649414062,
				-158.9395294189453
			],
			"type":"VEC3"
		},
		{
			"bufferView":1,
			"componentType":5126,
			"count":1061422,
			"type":"VEC3"
		},
		{
			"bufferView":2,
			"componentType":5125,
			"count":6368520,
			"type":"SCALAR"
		}
	],
	"bufferViews":[
		{
			"buffer":0,
			"byteLength":12737064,
			"byteOffset":0,
			"target":34962
		},
		{
			"buffer":0,
			"byteLength":12737064,
			"byteOffset":12737064,
			"target":34962
		},
		{
			"buffer":0,
			"byteLength":25474080,
			"byteOffset":25474128,
			"target":34963
		}
	],
	"buffers":[
		{
			"byteLength":50948208,
			"uri":"Bust.bin"
		}
	]
}
