<svg xmlns="http://www.w3.org/2000/svg" width="60" height="60" viewBox="0 0 76 76" fill="none">
<path d="M16.1436 8C11.846 8 8.6658 11.7616 8.8082 15.8409 8.945 19.7599 8.7673 24.8359 7.4895 28.9752 6.2079 33.1267 4.0401 35.7563.4995 36.0941V39.9059C4.0401 40.2437 6.2079 42.8735 7.4895 47.0251 8.7673 51.1644 8.945 56.2399 8.8082 60.1591 8.6658 64.2379 11.8459 68 16.1442 68H60.1804C64.4782 68 67.6576 64.2386 67.5151 60.1591 67.3787 56.2403 67.556 51.1644 68.8338 47.0251 70.1163 42.8737 72.2782 40.2435 75.8188 39.9059V36.0941C72.2782 35.7563 70.1163 33.1267 68.8341 28.9752 67.556 24.8365 67.3787 19.7601 67.5151 15.8409 67.6576 11.7622 64.4782 8 60.1804 8H16.1436ZM51.5636 44.9338C51.5636 50.551 47.374 53.9575 40.4211 53.9575H28.5848C28.2463 53.9573 27.9216 53.8228 27.6822 53.5834 27.443 53.344 27.3085 53.0194 27.3085 52.6808V23.3192C27.3084 23.1516 27.3414 22.9856 27.4056 22.8306 27.4697 22.6757 27.5637 22.5349 27.6822 22.4164 27.8009 22.2978 27.9416 22.2037 28.0965 22.1396 28.2514 22.0753 28.4174 22.0423 28.5851 22.0423H40.3535C46.1509 22.0423 49.9558 25.1831 49.9558 30.0047 49.9558 33.389 47.3961 36.4189 44.1352 36.9494V37.1262C48.5747 37.6132 51.5636 40.6873 51.5636 44.9338ZM39.13 26.0893H32.3817V35.6219H38.0659C42.4598 35.6219 44.8829 33.8525 44.8829 30.6897 44.8829 27.726 42.799 26.0893 39.13 26.0893ZM32.3819 39.4043V49.9093H39.379C43.9535 49.9093 46.3773 48.0737 46.3773 44.6237 46.3773 41.1732 43.8861 39.4038 39.0847 39.4038L32.3819 39.4043Z" fill="#7E13F8"/>
</svg>