<svg width="80" height="80" viewBox="0 0 80 80" fill="none" xmlns="http://www.w3.org/2000/svg">
<g clip-path="url(#clip0_263_1104)">
<mask id="mask0_263_1104" style="mask-type:luminance" maskUnits="userSpaceOnUse" x="0" y="0" width="80" height="80">
<path d="M80 0H0V80H80V0Z" fill="white"/>
</mask>
<g mask="url(#mask0_263_1104)">
<path d="M61.25 0H18.75C8.39468 0 0 8.39468 0 18.75V61.25C0 71.6052 8.39468 80 18.75 80H61.25C71.6052 80 80 71.6052 80 61.25V18.75C80 8.39468 71.6052 0 61.25 0Z" fill="#001E36"/>
<path d="M18 55.6375V21.3376C18 21.1041 18.1 20.971 18.3334 20.971C18.9 20.971 19.4334 20.971 20.2 20.9376C21 20.9041 21.8334 20.9041 22.7334 20.871C23.6334 20.8376 24.6 20.8376 25.6334 20.8041C26.6666 20.771 27.6666 20.771 28.6666 20.771C31.4 20.771 33.6666 21.1041 35.5334 21.8041C37.2067 22.3724 38.7325 23.3062 40 24.5376C41.074 25.6152 41.904 26.9112 42.4336 28.3376C42.9336 29.7376 43.2 31.171 43.2 32.671C43.2 35.5376 42.5336 37.9041 41.2 39.771C39.8666 41.6375 38 43.0375 35.8334 43.8375C33.5666 44.6711 31.0666 44.9711 28.3334 44.9711C27.5334 44.9711 27 44.9711 26.6666 44.9375C26.3334 44.9043 25.8666 44.9043 25.2334 44.9043V55.6043C25.2666 55.8375 25.1 56.0375 24.8666 56.0711H18.4C18.1334 56.0711 18 55.9375 18 55.6375ZM25.2666 27.4041V38.6041C25.7334 38.6376 26.1666 38.671 26.5666 38.671H28.3334C29.6334 38.671 30.9334 38.471 32.1666 38.071C33.2334 37.771 34.1666 37.1376 34.9 36.3041C35.6 35.471 35.9334 34.3376 35.9334 32.871C35.9647 31.8293 35.6987 30.8002 35.1666 29.9041C34.6 29.0376 33.8 28.371 32.8334 28.0041C31.6 27.5041 30.2666 27.3041 28.9 27.3376C28.0334 27.3376 27.2666 27.3376 26.6334 27.371C25.9666 27.3376 25.5 27.371 25.2666 27.4041ZM64 36.571C63 36.0376 61.9336 35.671 60.8 35.4376C59.5664 35.171 58.3336 35.0041 57.0664 35.0041C56.4 34.971 55.7 35.071 55.0664 35.2376C54.6336 35.3376 54.2664 35.571 54.0336 35.9041C53.8664 36.171 53.7664 36.5042 53.7664 36.8042C53.7664 37.1042 53.9 37.4041 54.1 37.671C54.4 38.0376 54.8 38.3376 55.2336 38.571C56.0064 38.9713 56.796 39.3383 57.6 39.671C59.4 40.2711 61.1336 41.1043 62.7336 42.1043C63.8336 42.8043 64.7336 43.7375 65.3664 44.8711C65.9 45.9375 66.1664 47.1043 66.1336 48.3043C66.1664 49.8711 65.7 51.4375 64.8336 52.7375C63.9036 54.0683 62.6064 55.0991 61.1 55.7043C59.4664 56.4043 57.4664 56.7711 55.0664 56.7711C53.5336 56.7711 52.0336 56.6375 50.5336 56.3375C49.3576 56.1343 48.2144 55.7759 47.1336 55.2711C46.9 55.1375 46.7336 54.9043 46.7664 54.6375V48.8375C46.7664 48.7375 46.8 48.6043 46.9 48.5375C47 48.4711 47.1 48.5043 47.2 48.5711C48.5 49.3375 49.8664 49.8711 51.3336 50.2043C52.6 50.5375 53.9336 50.7043 55.2664 50.7043C56.5336 50.7043 57.4336 50.5375 58.0336 50.2375C58.5664 50.0043 58.9336 49.4375 58.9336 48.8375C58.9336 48.3711 58.6664 47.9375 58.1336 47.5043C57.6 47.0711 56.5 46.5711 54.8664 45.9375C53.1912 45.3471 51.6 44.5403 50.1336 43.5375C49.0888 42.7931 48.2236 41.8251 47.6 40.7043C47.0664 39.6376 46.8 38.471 46.8336 37.3041C46.8336 35.871 47.2336 34.5042 47.9664 33.271C48.8 31.9376 50.0336 30.871 51.4664 30.2041C53.0336 29.4041 55 29.0376 57.3664 29.0376C58.7336 29.0376 60.1336 29.1376 61.5 29.3376C62.5 29.471 63.4664 29.7376 64.3664 30.1041C64.5 30.1376 64.6336 30.271 64.7 30.4041C64.7336 30.5376 64.7664 30.671 64.7664 30.8041V36.2376C64.7664 36.371 64.7 36.5041 64.6 36.571C64.3 36.6376 64.1336 36.6376 64 36.571Z" fill="#31A8FF"/>
</g>
</g>
<defs>
<clipPath id="clip0_263_1104">
<rect width="80" height="80" fill="white"/>
</clipPath>
</defs>
</svg>
