<svg xmlns="http://www.w3.org/2000/svg" width="800px" height="800px" viewBox="0 0 32 32"><title>file_type_js_official</title><rect x="2" y="2" width="28" height="28" style="fill:#007ACC"/><path xmlns="http://www.w3.org/2000/svg" fill="#FFFFFF" d="M17.8258 15.983 17.8349 17.1573 15.969 17.1573 14.103 17.1573 14.103 22.4593 14.103 27.7614 12.7831 27.7614 11.4634 27.7614 11.4634 22.4593 11.4634 17.1573 9.5974 17.1573 7.7315 17.1573 7.7315 16.0058C7.7315 15.3686 7.7451 14.8362 7.7633 14.8226 7.777 14.8043 10.0479 14.7952 12.8014 14.7998L17.8122 14.8134 17.8258 15.983ZM24.5355 14.7695C25.2637 14.9516 25.819 15.2747 26.3287 15.8026 26.5927 16.0848 26.984 16.599 27.0159 16.7219 27.025 16.7583 25.778 17.5958 25.0225 18.0646 24.9952 18.0827 24.886 17.9644 24.7631 17.7823 24.3945 17.2454 24.0076 17.0132 23.416 16.9722 22.5467 16.9131 21.987 17.3682 21.9915 18.1282 21.9915 18.3513 22.0234 18.4832 22.1143 18.6653 22.3055 19.0612 22.6605 19.2978 23.7755 19.7803 25.8281 20.6632 26.7064 21.2458 27.2526 22.0741 27.8624 22.9979 27.999 24.4725 27.5848 25.5693 27.1297 26.7617 26.0011 27.5718 24.4127 27.8403 23.9211 27.9268 22.7561 27.9131 22.2282 27.8175 21.0767 27.6127 19.9844 27.0438 19.3109 26.2975 19.0469 26.0062 18.5327 25.2462 18.5645 25.1916 18.5782 25.1734 18.6965 25.1006 18.8285 25.0232 18.9559 24.9503 19.4383 24.6727 19.8935 24.4088L20.7171 23.9309 20.8901 24.1858C21.1313 24.5544 21.6593 25.0596 21.9779 25.228 22.8926 25.7104 24.1487 25.6422 24.7677 25.0869 25.0316 24.8457 25.1409 24.5954 25.1409 24.2267 25.1409 23.8945 25.0999 23.7489 24.927 23.4986 24.7039 23.18 24.2488 22.9114 22.9563 22.3517 21.4772 21.7145 20.8401 21.3186 20.2575 20.6905 19.9207 20.3264 19.6022 19.7439 19.4702 19.2569 19.361 18.8518 19.3336 17.837 19.4201 17.4274 19.7251 15.9983 20.8036 15.0016 22.3601 14.7058 22.8653 14.6102 24.0395 14.6466 24.5355 14.7695Z"/></svg>