<svg xmlns="http://www.w3.org/2000/svg" width="60" height="60" viewBox="0 0 76 76" fill="none"><path d="M16.144 8c-4.298 0-7.478 3.762-7.336 7.84.137 3.92-.04 8.996-1.319 13.135-1.281 4.152-3.449 6.781-6.99 7.12v3.81c3.541.339 5.709 2.968 6.99 7.12 1.278 4.14 1.456 9.215 1.32 13.134C8.665 64.238 11.845 68 16.143 68H60.18c4.298 0 7.478-3.761 7.335-7.84-.136-3.92.041-8.996 1.319-13.135 1.282-4.151 3.444-6.782 6.985-7.12v-3.81c-3.54-.339-5.703-2.968-6.985-7.12-1.278-4.139-1.455-9.215-1.319-13.134C67.658 11.762 64.478 8 60.18 8H16.144Zm35.42 36.934c0 5.617-4.19 9.024-11.143 9.024H28.585a1.278 1.278 0 0 1-1.277-1.277V23.319a1.275 1.275 0 0 1 1.277-1.277h11.768c5.798 0 9.603 3.141 9.603 7.963 0 3.384-2.56 6.414-5.82 6.944v.177c4.439.487 7.428 3.561 7.428 7.808ZM39.13 26.089h-6.748v9.533h5.684c4.394 0 6.817-1.77 6.817-4.932 0-2.964-2.084-4.6-5.753-4.6Zm-6.748 13.315V49.91h6.997c4.575 0 6.998-1.835 6.998-5.285s-2.49-5.22-7.292-5.22h-6.703Z" fill="#7E13F8"/></svg>