<svg width="80" height="80" fill="none" xmlns="http://www.w3.org/2000/svg"><g clip-path="url(#clip0_263_1104)"><mask id="a" style="mask-type:luminance" maskUnits="userSpaceOnUse" x="0" y="0" width="80" height="80"><path d="M80 0H0v80h80V0z" fill="#fff"/></mask><g mask="url(#a)"><path d="M61.25 0h-42.5C8.395 0 0 8.395 0 18.75v42.5C0 71.605 8.395 80 18.75 80h42.5C71.605 80 80 71.605 80 61.25v-42.5C80 8.395 71.605 0 61.25 0z" fill="#001E36"/><path d="M18 55.638v-34.3c0-.234.1-.367.333-.367.567 0 1.1 0 1.867-.033.8-.034 1.633-.034 2.533-.067.9-.033 1.867-.033 2.9-.067 1.034-.033 2.034-.033 3.034-.033 2.733 0 5 .333 6.866 1.033 1.674.568 3.2 1.502 4.467 2.734a10.62 10.62 0 012.434 3.8c.5 1.4.766 2.833.766 4.333 0 2.867-.666 5.233-2 7.1-1.333 1.867-3.2 3.267-5.367 4.066-2.266.834-4.766 1.134-7.5 1.134-.8 0-1.333 0-1.666-.033-.334-.034-.8-.034-1.434-.034v10.7a.414.414 0 01-.366.467H18.4c-.267 0-.4-.133-.4-.433zm7.267-28.234v11.2c.466.034.9.067 1.3.067h1.766c1.3 0 2.6-.2 3.834-.6 1.066-.3 2-.933 2.733-1.767.7-.833 1.033-1.966 1.033-3.433a5.488 5.488 0 00-.766-2.967 4.836 4.836 0 00-2.334-1.9c-1.233-.5-2.566-.7-3.933-.666-.867 0-1.633 0-2.267.033-.666-.033-1.133 0-1.366.033zM64 36.571c-1-.533-2.066-.9-3.2-1.133-1.234-.267-2.466-.434-3.734-.434-.666-.033-1.366.067-2 .234-.432.1-.8.333-1.032.666-.168.267-.268.6-.268.9 0 .3.134.6.334.867.3.367.7.667 1.134.9.772.4 1.562.767 2.366 1.1 1.8.6 3.534 1.433 5.134 2.433 1.1.7 2 1.633 2.632 2.767.534 1.066.8 2.233.768 3.433a7.761 7.761 0 01-1.3 4.433 8.354 8.354 0 01-3.734 2.967c-1.634.7-3.634 1.067-6.034 1.067a22.96 22.96 0 01-4.532-.434 13.442 13.442 0 01-3.4-1.066c-.234-.133-.4-.367-.368-.633v-5.8c0-.1.034-.234.134-.3.1-.067.2-.034.3.033 1.3.767 2.666 1.3 4.134 1.633 1.266.334 2.6.5 3.932.5 1.268 0 2.168-.166 2.768-.467.532-.233.9-.8.9-1.4 0-.466-.268-.9-.8-1.333-.534-.433-1.634-.933-3.268-1.566a20.393 20.393 0 01-4.732-2.4 8.63 8.63 0 01-2.534-2.834 7.146 7.146 0 01-.766-3.4c0-1.433.4-2.8 1.132-4.033a8.223 8.223 0 013.5-3.067c1.568-.8 3.534-1.166 5.9-1.166 1.368 0 2.768.1 4.134.3 1 .133 1.966.4 2.866.766.134.034.268.167.334.3.034.134.066.267.066.4v5.434a.41.41 0 01-.166.333c-.3.067-.466.067-.6 0z" fill="#31A8FF"/></g></g><defs><clipPath id="clip0_263_1104"><path fill="#fff" d="M0 0h80v80H0z"/></clipPath></defs></svg>