{
	"asset":{
		"generator":"Khronos glTF Blender I/O v4.4.55",
		"version":"2.0"
	},
	"extensionsUsed":[
		"EXT_texture_webp"
	],
	"extensionsRequired":[
		"EXT_texture_webp"
	],
	"scene":0,
	"scenes":[
		{
			"name":"Scene",
			"nodes":[
				0
			]
		}
	],
	"nodes":[
		{
			"mesh":0,
			"name":"Topo.004",
			"rotation":[
				0.7193397879600525,
				0,
				0,
				0.6946583986282349
			]
		}
	],
	"materials":[
		{
			"doubleSided":true,
			"name":"Material",
			"normalTexture":{
				"index":0
			},
			"pbrMetallicRoughness":{
				"baseColorFactor":[
					0.800000011920929,
					0.800000011920929,
					0.800000011920929,
					1
				],
				"metallicFactor":0,
				"roughnessFactor":0.5
			}
		}
	],
	"meshes":[
		{
			"name":"Plane.010",
			"primitives":[
				{
					"attributes":{
						"POSITION":0,
						"NORMAL":1,
						"TEXCOORD_0":2
					},
					"indices":3,
					"material":0
				}
			]
		}
	],
	"textures":[
		{
			"extensions":{
				"EXT_texture_webp":{
					"source":0
				}
			},
			"sampler":0
		}
	],
	"images":[
		{
			"mimeType":"image/webp",
			"name":"bust__normal",
			"uri":"bust__normal.webp"
		}
	],
	"accessors":[
		{
			"bufferView":0,
			"componentType":5126,
			"count":5143,
			"max":[
				1.0624854564666748,
				0.8907712697982788,
				1.3973641395568848
			],
			"min":[
				-0.7312653660774231,
				-1.2450220584869385,
				-1.33845853805542
			],
			"type":"VEC3"
		},
		{
			"bufferView":1,
			"componentType":5126,
			"count":5143,
			"type":"VEC3"
		},
		{
			"bufferView":2,
			"componentType":5126,
			"count":5143,
			"type":"VEC2"
		},
		{
			"bufferView":3,
			"componentType":5123,
			"count":30288,
			"type":"SCALAR"
		}
	],
	"bufferViews":[
		{
			"buffer":0,
			"byteLength":61716,
			"byteOffset":0,
			"target":34962
		},
		{
			"buffer":0,
			"byteLength":61716,
			"byteOffset":61716,
			"target":34962
		},
		{
			"buffer":0,
			"byteLength":41144,
			"byteOffset":123432,
			"target":34962
		},
		{
			"buffer":0,
			"byteLength":60576,
			"byteOffset":164576,
			"target":34963
		}
	],
	"samplers":[
		{
			"magFilter":9729,
			"minFilter":9987
		}
	],
	"buffers":[
		{
			"byteLength":225152,
			"uri":"bust-topo.bin"
		}
	]
}
