{
	"asset":{
		"generator":"Khronos glTF Blender I/O v4.4.55",
		"version":"2.0"
	},
	"scene":0,
	"scenes":[
		{
			"name":"Scene",
			"nodes":[
				0
			]
		}
	],
	"nodes":[
		{
			"mesh":0,
			"name":"\u96d5\u50cf.004"
		}
	],
	"meshes":[
		{
			"name":"\u96d5\u50cf.004",
			"primitives":[
				{
					"attributes":{
						"POSITION":0
					},
					"indices":1
				}
			]
		}
	],
	"accessors":[
		{
			"bufferView":0,
			"componentType":5126,
			"count":1061422,
			"max":[
				1.071234941482544,
				1.3038491010665894,
				0.8764222860336304
			],
			"min":[
				-0.7716829180717468,
				-1.4640976190567017,
				-1.2472606897354126
			],
			"type":"VEC3"
		},
		{
			"bufferView":1,
			"componentType":5125,
			"count":6368520,
			"type":"SCALAR"
		}
	],
	"bufferViews":[
		{
			"buffer":0,
			"byteLength":12737064,
			"byteOffset":0,
			"target":34962
		},
		{
			"buffer":0,
			"byteLength":25474080,
			"byteOffset":12737064,
			"target":34963
		}
	],
	"buffers":[
		{
			"byteLength":38211144,
			"uri":"bust-sculpt.bin"
		}
	]
}
