{
	"asset":{
		"generator":"Khronos glTF Blender I/O v4.4.55",
		"version":"2.0"
	},
	"scene":0,
	"scenes":[
		{
			"name":"Scene",
			"nodes":[
				0,
				1
			]
		}
	],
	"nodes":[
		{
			"mesh":0,
			"name":"Topo.004",
			"rotation":[
				0.7193397879600525,
				0,
				0,
				0.6946583986282349
			]
		},
		{
			"name":"Cube.001"
		}
	],
	"materials":[
		{
			"doubleSided":true,
			"name":"bust__tex",
			"pbrMetallicRoughness":{
				"baseColorTexture":{
					"index":0
				},
				"metallicFactor":0
			}
		}
	],
	"meshes":[
		{
			"name":"Plane.010",
			"primitives":[
				{
					"attributes":{
						"POSITION":0,
						"NORMAL":1,
						"TEXCOORD_0":2,
						"COLOR_0":3,
						"COLOR_1":4
					},
					"indices":5,
					"material":0
				}
			]
		}
	],
	"textures":[
		{
			"sampler":0,
			"source":0
		}
	],
	"images":[
		{
			"mimeType":"image/png",
			"name":"bust__texture",
			"uri":"bust__texture.png"
		}
	],
	"accessors":[
		{
			"bufferView":0,
			"componentType":5126,
			"count":5143,
			"max":[
				1.0624854564666748,
				0.8907712697982788,
				1.3973641395568848
			],
			"min":[
				-0.7312653660774231,
				-1.2450220584869385,
				-1.33845853805542
			],
			"type":"VEC3"
		},
		{
			"bufferView":1,
			"componentType":5126,
			"count":5143,
			"type":"VEC3"
		},
		{
			"bufferView":2,
			"componentType":5126,
			"count":5143,
			"type":"VEC2"
		},
		{
			"bufferView":3,
			"componentType":5121,
			"count":5143,
			"normalized":true,
			"type":"VEC4"
		},
		{
			"bufferView":4,
			"componentType":5123,
			"count":5143,
			"normalized":true,
			"type":"VEC4"
		},
		{
			"bufferView":5,
			"componentType":5123,
			"count":30288,
			"type":"SCALAR"
		}
	],
	"bufferViews":[
		{
			"buffer":0,
			"byteLength":61716,
			"byteOffset":0,
			"target":34962
		},
		{
			"buffer":0,
			"byteLength":61716,
			"byteOffset":61716,
			"target":34962
		},
		{
			"buffer":0,
			"byteLength":41144,
			"byteOffset":123432,
			"target":34962
		},
		{
			"buffer":0,
			"byteLength":20572,
			"byteOffset":164576,
			"target":34962
		},
		{
			"buffer":0,
			"byteLength":41144,
			"byteOffset":185148,
			"target":34962
		},
		{
			"buffer":0,
			"byteLength":60576,
			"byteOffset":226292,
			"target":34963
		}
	],
	"samplers":[
		{
			"magFilter":9729,
			"minFilter":9987
		}
	],
	"buffers":[
		{
			"byteLength":286868,
			"uri":"bust-rig.bin"
		}
	]
}
