{
	"asset":{
		"generator":"Khronos glTF Blender I/O v4.4.55",
		"version":"2.0"
	},
	"scene":0,
	"scenes":[
		{
			"name":"Scene",
			"nodes":[
				0,
				1,
				2,
				3,
				4,
				5
			]
		}
	],
	"nodes":[
		{
			"mesh":0,
			"name":"Cube"
		},
		{
			"mesh":1,
			"name":"\u96d5\u50cf",
			"rotation":[
				0.0015235133469104767,
				-0.05732978880405426,
				0.02652144804596901,
				0.9980018138885498
			],
			"scale":[
				0.007666036952286959,
				0.007666036952286959,
				0.007666037417948246
			],
			"translation":[
				0.11121045053005219,
				0,
				0
			]
		},
		{
			"mesh":2,
			"name":"Plane",
			"rotation":[
				0.7071068286895752,
				0,
				0,
				0.7071068286895752
			]
		},
		{
			"mesh":3,
			"name":"Reto",
			"rotation":[
				0.7071068286895752,
				0,
				0,
				0.7071068286895752
			],
			"translation":[
				1.8011183738708496,
				0,
				0
			]
		},
		{
			"mesh":4,
			"name":"Reto.001",
			"rotation":[
				0.7071068286895752,
				0,
				0,
				0.7071068286895752
			]
		},
		{
			"mesh":5,
			"name":"Reto.002",
			"rotation":[
				0.7071068286895752,
				0,
				0,
				0.7071068286895752
			]
		}
	],
	"materials":[
		{
			"doubleSided":true,
			"name":"Material",
			"pbrMetallicRoughness":{
				"baseColorFactor":[
					0.800000011920929,
					0.800000011920929,
					0.800000011920929,
					1
				],
				"metallicFactor":0,
				"roughnessFactor":0.5
			}
		},
		{
			"doubleSided":true,
			"name":"Material.002",
			"normalTexture":{
				"index":0,
				"scale":0.3999999165534973
			},
			"pbrMetallicRoughness":{
				"metallicFactor":0,
				"metallicRoughnessTexture":{
					"index":1
				}
			}
		}
	],
	"meshes":[
		{
			"name":"Cube",
			"primitives":[
				{
					"attributes":{
						"POSITION":0,
						"NORMAL":1,
						"TEXCOORD_0":2
					},
					"indices":3,
					"material":0
				}
			]
		},
		{
			"name":"\u96d5\u50cf",
			"primitives":[
				{
					"attributes":{
						"POSITION":4,
						"NORMAL":5
					},
					"indices":6
				}
			]
		},
		{
			"name":"Plane",
			"primitives":[
				{
					"attributes":{
						"POSITION":7,
						"NORMAL":8,
						"TEXCOORD_0":9
					},
					"indices":10
				}
			]
		},
		{
			"name":"Plane.001",
			"primitives":[
				{
					"attributes":{
						"POSITION":11,
						"NORMAL":12,
						"TEXCOORD_0":13
					},
					"indices":14,
					"material":1
				}
			]
		},
		{
			"name":"Plane.003",
			"primitives":[
				{
					"attributes":{
						"POSITION":15,
						"NORMAL":16,
						"TEXCOORD_0":17
					},
					"indices":18,
					"material":1
				}
			]
		},
		{
			"name":"Plane.004",
			"primitives":[
				{
					"attributes":{
						"POSITION":19,
						"NORMAL":20,
						"TEXCOORD_0":21
					},
					"indices":22,
					"material":1
				}
			]
		}
	],
	"textures":[
		{
			"sampler":0,
			"source":0
		},
		{
			"sampler":0,
			"source":1
		}
	],
	"images":[
		{
			"mimeType":"image/png",
			"name":"Normal-map",
			"uri":"Normal-map.png"
		},
		{
			"mimeType":"image/png",
			"name":"Image",
			"uri":"Image.png"
		}
	],
	"accessors":[
		{
			"bufferView":0,
			"componentType":5126,
			"count":24,
			"max":[
				1,
				1,
				1
			],
			"min":[
				-1,
				-1,
				-1
			],
			"type":"VEC3"
		},
		{
			"bufferView":1,
			"componentType":5126,
			"count":24,
			"type":"VEC3"
		},
		{
			"bufferView":2,
			"componentType":5126,
			"count":24,
			"type":"VEC2"
		},
		{
			"bufferView":3,
			"componentType":5123,
			"count":36,
			"type":"SCALAR"
		},
		{
			"bufferView":4,
			"componentType":5126,
			"count":1061422,
			"max":[
				114.88253021240234,
				173.82542419433594,
				117.31536865234375
			],
			"min":[
				-101.42086029052734,
				-182.44790649414062,
				-158.9395294189453
			],
			"type":"VEC3"
		},
		{
			"bufferView":5,
			"componentType":5126,
			"count":1061422,
			"type":"VEC3"
		},
		{
			"bufferView":6,
			"componentType":5125,
			"count":6368520,
			"type":"SCALAR"
		},
		{
			"bufferView":7,
			"componentType":5126,
			"count":2318,
			"max":[
				1.1746927499771118,
				0.9005739688873291,
				1.5915261507034302
			],
			"min":[
				-0.7594032883644104,
				-1.2049261331558228,
				-1.3102859258651733
			],
			"type":"VEC3"
		},
		{
			"bufferView":8,
			"componentType":5126,
			"count":2318,
			"type":"VEC3"
		},
		{
			"bufferView":9,
			"componentType":5126,
			"count":2318,
			"type":"VEC2"
		},
		{
			"bufferView":10,
			"componentType":5123,
			"count":3504,
			"type":"SCALAR"
		},
		{
			"bufferView":11,
			"componentType":5126,
			"count":914,
			"max":[
				1.0464038848876953,
				0.8884740471839905,
				1.4142204523086548
			],
			"min":[
				-0.7111215591430664,
				-1.2024606466293335,
				-1.2879786491394043
			],
			"type":"VEC3"
		},
		{
			"bufferView":12,
			"componentType":5126,
			"count":914,
			"type":"VEC3"
		},
		{
			"bufferView":13,
			"componentType":5126,
			"count":914,
			"type":"VEC2"
		},
		{
			"bufferView":14,
			"componentType":5123,
			"count":3510,
			"type":"SCALAR"
		},
		{
			"bufferView":15,
			"componentType":5126,
			"count":2491,
			"max":[
				1.0031393766403198,
				0.8801844716072083,
				1.3910048007965088
			],
			"min":[
				-0.6938294172286987,
				-1.1813507080078125,
				-1.2366814613342285
			],
			"type":"VEC3"
		},
		{
			"bufferView":16,
			"componentType":5126,
			"count":2491,
			"type":"VEC3"
		},
		{
			"bufferView":17,
			"componentType":5126,
			"count":2491,
			"type":"VEC2"
		},
		{
			"bufferView":18,
			"componentType":5123,
			"count":14040,
			"type":"SCALAR"
		},
		{
			"bufferView":19,
			"componentType":5126,
			"count":2491,
			"max":[
				1.0295891761779785,
				0.8905421495437622,
				1.405729055404663
			],
			"min":[
				-0.7051877379417419,
				-1.2158896923065186,
				-1.3106499910354614
			],
			"type":"VEC3"
		},
		{
			"bufferView":20,
			"componentType":5126,
			"count":2491,
			"type":"VEC3"
		},
		{
			"bufferView":21,
			"componentType":5126,
			"count":2491,
			"type":"VEC2"
		},
		{
			"bufferView":22,
			"componentType":5123,
			"count":14040,
			"type":"SCALAR"
		}
	],
	"bufferViews":[
		{
			"buffer":0,
			"byteLength":288,
			"byteOffset":0,
			"target":34962
		},
		{
			"buffer":0,
			"byteLength":288,
			"byteOffset":288,
			"target":34962
		},
		{
			"buffer":0,
			"byteLength":192,
			"byteOffset":576,
			"target":34962
		},
		{
			"buffer":0,
			"byteLength":72,
			"byteOffset":768,
			"target":34963
		},
		{
			"buffer":0,
			"byteLength":12737064,
			"byteOffset":840,
			"target":34962
		},
		{
			"buffer":0,
			"byteLength":12737064,
			"byteOffset":12737904,
			"target":34962
		},
		{
			"buffer":0,
			"byteLength":25474080,
			"byteOffset":25474968,
			"target":34963
		},
		{
			"buffer":0,
			"byteLength":27816,
			"byteOffset":50949048,
			"target":34962
		},
		{
			"buffer":0,
			"byteLength":27816,
			"byteOffset":50976864,
			"target":34962
		},
		{
			"buffer":0,
			"byteLength":18544,
			"byteOffset":51004680,
			"target":34962
		},
		{
			"buffer":0,
			"byteLength":7008,
			"byteOffset":51023224,
			"target":34963
		},
		{
			"buffer":0,
			"byteLength":10968,
			"byteOffset":51030232,
			"target":34962
		},
		{
			"buffer":0,
			"byteLength":10968,
			"byteOffset":51041200,
			"target":34962
		},
		{
			"buffer":0,
			"byteLength":7312,
			"byteOffset":51052168,
			"target":34962
		},
		{
			"buffer":0,
			"byteLength":7020,
			"byteOffset":51059480,
			"target":34963
		},
		{
			"buffer":0,
			"byteLength":29892,
			"byteOffset":51066500,
			"target":34962
		},
		{
			"buffer":0,
			"byteLength":29892,
			"byteOffset":51096392,
			"target":34962
		},
		{
			"buffer":0,
			"byteLength":19928,
			"byteOffset":51126284,
			"target":34962
		},
		{
			"buffer":0,
			"byteLength":28080,
			"byteOffset":51146212,
			"target":34963
		},
		{
			"buffer":0,
			"byteLength":29892,
			"byteOffset":51174292,
			"target":34962
		},
		{
			"buffer":0,
			"byteLength":29892,
			"byteOffset":51204184,
			"target":34962
		},
		{
			"buffer":0,
			"byteLength":19928,
			"byteOffset":51234076,
			"target":34962
		},
		{
			"buffer":0,
			"byteLength":28080,
			"byteOffset":51254004,
			"target":34963
		}
	],
	"samplers":[
		{
			"magFilter":9729,
			"minFilter":9987
		}
	],
	"buffers":[
		{
			"byteLength":51282084,
			"uri":"Bust.bin"
		}
	]
}
